<svg width="420" height="446" viewBox="0 0 420 446" fill="none" xmlns="http://www.w3.org/2000/svg">
<mask id="mask0_4592_16" style="mask-type:luminance" maskUnits="userSpaceOnUse" x="0" y="0" width="420" height="446">
<path d="M0 0H420V446H0V0Z" fill="white"/>
</mask>
<g mask="url(#mask0_4592_16)">
<mask id="mask1_4592_16" style="mask-type:luminance" maskUnits="userSpaceOnUse" x="-73" y="-77" width="541" height="616">
<path d="M-72.4102 379.535L175.437 -76.5792L467.885 82.0986L220.033 538.213L-72.4102 379.535Z" fill="white"/>
</mask>
<g mask="url(#mask1_4592_16)">
<mask id="mask2_4592_16" style="mask-type:luminance" maskUnits="userSpaceOnUse" x="-73" y="-77" width="541" height="616">
<path d="M-72.4111 379.535L175.436 -76.5792L467.884 82.0986L220.032 538.213L-72.4111 379.535Z" fill="white"/>
</mask>
<g mask="url(#mask2_4592_16)">
<path d="M418.795 155.296C417.782 153.811 416.769 152.315 415.21 150.018C413.23 160.415 411.821 169.881 409.584 179.147C402.08 210.27 385.401 234.948 356.714 250.155C342.359 257.761 327.337 264.154 312.396 270.604C296.252 277.573 279.219 274.196 262.504 273.79C255.72 273.621 248.952 272.655 240.661 271.92C240.132 282.409 237.925 292.98 239.448 302.986C242.847 325.352 247.789 347.507 252.809 369.59C254.229 375.839 254.373 379.149 247.321 381.457C201.646 396.391 156.151 411.865 110.496 426.851C91.9558 432.941 73.0964 438.06 54.5146 444.042C47.9367 446.159 44.9897 444.756 43.0097 437.905C30.4607 394.541 18.3026 351.043 4.32383 308.141C-1.04034 291.675 0.394562 275.887 2.35405 259.868C3.22837 252.694 7.90338 245.957 11.0046 239.085C23.6256 211.087 35.0791 182.467 49.4076 155.368C58.053 139.015 71.718 125.386 82.1738 109.896C94.0645 92.2946 112.122 82.3502 128.502 70.2525C135.173 65.3241 142.224 60.8735 148.56 55.5596C165.578 41.3189 186.166 34.2422 206.249 26.112C212.133 23.7274 218.099 21.5278 223.838 18.84C249.775 6.69611 278.159 5.56034 305.71 0.883677C313.533 -0.447375 321.417 1.83443 328.237 7.37962C344.514 20.6079 361.419 33.0705 377.656 46.3501C382.177 50.0504 386.394 55.0046 388.786 60.2722C399.653 84.2106 411.317 107.918 416.347 134.04C417.674 140.952 418.744 147.911 419.932 154.849C419.556 154.998 419.176 155.152 418.795 155.301V155.296Z" fill="#2250E7"/>
</g>
</g>
</g>
</svg>
