<svg width="370" height="320" viewBox="0 0 370 320" fill="none" xmlns="http://www.w3.org/2000/svg">
<mask id="mask0_4592_11" style="mask-type:luminance" maskUnits="userSpaceOnUse" x="0" y="0" width="370" height="320">
<path d="M0 0H370V320H0V0Z" fill="white"/>
</mask>
<g mask="url(#mask0_4592_11)">
<path d="M97.909 4.8659C86.4604 36.5951 75.0743 66.0969 65.1843 96.0902C52.9117 133.298 52.6884 171.171 65.5751 208.164C73.5514 231.063 91.2703 248.11 112.575 257.353C125.866 263.114 143.179 260.154 158.689 260.13C201.315 260.054 231.697 237.63 256.504 205.395C281.625 172.755 306.8 140.154 333.076 106.09C345.304 119.779 356.6 132.417 369.929 147.337C343.071 176.81 317.438 206.886 289.617 234.783C270.775 253.673 249.89 270.956 228.086 286.367C192.213 311.722 150.666 319.634 107.375 319.573C100.975 319.564 94.5662 319.113 88.1731 318.753C47.49 316.466 21.5201 295.853 9.32122 256.68C-5.0772 210.451 -2.59186 165.103 15.395 120.313C30.0167 83.9164 44.6518 47.529 58.5255 10.8422C62.0648 1.47672 66.6 -1.72257 76.1506 0.864562C82.9501 2.70102 90.0309 3.4651 97.909 4.87261V4.8659Z" fill="#E3FC0D"/>
</g>
</svg>
